# xmcd CD database file
#
# Track frame offsets:
#	150
#	11349
#	21411
#	31944
#	41682
#	56645
#	69623
#	81851
#	96412
#	107327
#	120199
#	130441
#	144688
#	156117
#	168278
#	178310
#	188153
#	198495
#	208918
#	220537
#
# Disc length: 3120 seconds
#
# Revision: 2
# Processed by: cddbd v1.5.1PL0 Copyright (c) Steve Scherf et al.
# Submitted via: CDex 1.40Release
#
DISCID=1c0c2e14
DTITLE=Various Artist - Ultimate Country Box 4
DYEAR=1900
DGENRE=Country
TTITLE0=Roger Miller - King Of The Road
TTITLE1=Don Gibson - Lonesome Number One
TTITLE2=George Hamilton IV - Abilene
TTITLE3=Dave Dudley - Six Days On The Road
TTITLE4=Frankie Laine - Sixteen Tons
TTITLE5=Faron Young - It's Four In The Morning
TTITLE6=Johnny Paycheck - Take This Job And Shove It
TTITLE7=Loretta Lynn - Coal Miner's Daughter
TTITLE8=Tom Jones - Green Green Grass Of Home
TTITLE9=Claude King - Wolverton Mountain
TTITLE10=Roger Miller - Engine Engine No. 9
TTITLE11=B.J. Thomas - I'm So Lonely I Could Cry
TTITLE12=Johnny Horton - All For The Love Of A Girl
TTITLE13=Red Steagall - Truck Drivin' Man
TTITLE14=Hank Locklin - Please HElp Me I'm Falling
TTITLE15=Denis Olson - Truck Drivin' Outlaw
TTITLE16=Warner Mack - The Bridge Washed Out
TTITLE17=Johnny Paycheck - A - 11
TTITLE18=Al Hurt and Ace Cannon - Gotta Travel On
TTITLE19=Gene Autry - South Of The Border Down Mexico Way
EXTD=ID3G: 2
EXTT0=
EXTT1=
EXTT2=
EXTT3=
EXTT4=
EXTT5=
EXTT6=
EXTT7=
EXTT8=
EXTT9=
EXTT10=
EXTT11=
EXTT12=
EXTT13=
EXTT14=
EXTT15=
EXTT16=
EXTT17=
EXTT18=
EXTT19=
PLAYORDER=
